<?xml version="1.0" encoding="UTF-8" standalone="no"?>
<!-- Generator: Adobe Illustrator 24.1.1, SVG Export Plug-In . SVG Version: 6.00 Build 0)  -->

<svg
   version="1.1"
   id="Layer_1"
   x="0px"
   y="0px"
   viewBox="0 0 512 512"
   style="enable-background:new 0 0 512 512;"
   xml:space="preserve"
   sodipodi:docname="odom.svg"
   inkscape:version="1.2 (dc2aedaf03, 2022-05-15)"
   xmlns:inkscape="http://www.inkscape.org/namespaces/inkscape"
   xmlns:sodipodi="http://sodipodi.sourceforge.net/DTD/sodipodi-0.dtd"
   xmlns="http://www.w3.org/2000/svg"
   xmlns:svg="http://www.w3.org/2000/svg"><defs
   id="defs9">
	
</defs><sodipodi:namedview
   id="namedview7"
   pagecolor="#505050"
   bordercolor="#ffffff"
   borderopacity="1"
   inkscape:showpageshadow="0"
   inkscape:pageopacity="0"
   inkscape:pagecheckerboard="1"
   inkscape:deskcolor="#505050"
   showgrid="false"
   inkscape:zoom="1.0951869"
   inkscape:cx="270.73004"
   inkscape:cy="277.12164"
   inkscape:window-width="1920"
   inkscape:window-height="996"
   inkscape:window-x="-8"
   inkscape:window-y="-8"
   inkscape:window-maximized="1"
   inkscape:current-layer="path676-8-5-4-9-6-6-5-0" />
<style
   type="text/css"
   id="svgInternalID">
	.st0{fill:#333333;}
</style>

<g
   id="path676-8-5-4-9-6-6-5-0"
   inkscape:transform-center-x="-21.425043"
   inkscape:transform-center-y="-9.5622628"
   transform="matrix(-0.80163683,-0.41680218,0.99426325,-0.80038876,-275.09277,551.781)"><path
     style="color:#000000;fill:#f74127;stroke-width:19.6465;stroke-linecap:round;stroke-linejoin:round"
     d="m -164.64059,231.76926 43.06262,74.58666 43.062627,74.58666 -89.409067,-26.52483 -82.84144,26.52483 43.06263,-74.58666 z"
     id="fillColor"
     sodipodi:nodetypes="ccccccc" /><path
     id="fillColor"
     style="color:#000000;fill:#f74127;stroke-linecap:round;stroke-linejoin:round"
     d="m -59.204511,638.06219 c 7.015594,-2.63558 6.910577,-10.10635 -0.234553,-16.6861 0,0 -8.909108,-8.13896 -11.945728,-19.83838 -3.036627,-11.69942 -7.230953,-33.97836 25.834373,-47.10144 34.229049,-13.58494 78.730567,-21.0169 113.564046,-33.14521 17.416742,-6.06414 32.599733,-13.3596 42.157003,-24.12504 9.55727,-10.76544 12.81652,-25.40981 6.30251,-43.47246 -7.06513,-19.59085 -16.622624,-30.02526 -37.652749,-41.2368 -21.030133,-11.21154 -44.286363,-15.54274 -66.035073,-15.33663 -43.497418,0.41222 -85.186913,18.1283 -107.674972,50.32011 -20.305536,29.06751 -65.420286,50.71574 -107.711766,56.33488 -21.14571,2.80959 -41.34614,1.42108 -55.36346,-2.85087 -14.01735,-4.27196 -28.71037,-12.24292 -36.38412,-25.25361 -5.35174,-9.07376 -6.25859,-14.26486 -5.68409,-17.1157 0.5745,-2.85087 2.13679,-4.22689 6.3484,-5.5973 8.42321,-2.7408 34.94332,0.38537 57.83325,0.56028 22.88995,0.1749 48.82749,-0.33859 67.50505,-10.15074 12.2682,-6.44502 23.48862,-46.83908 23.48862,-46.83908 l -37.36552,-2.29044 c 0,0 -9.70616,23.90686 -14.43201,26.38954 -12.02924,6.31947 -31.80548,7.38957 -53.43653,7.22428 -21.63106,-0.16529 -44.68423,-2.04054 -62.19682,3.65782 -8.75631,2.84918 -15.81411,8.36765 -17.48634,16.66581 -1.67223,8.29814 1.54687,18.51063 8.71951,30.67169 12.2531,20.77486 30.25436,30.56292 55.60505,38.28885 25.35066,7.72592 51.08393,8.35502 76.12689,5.02762 50.08594,-6.65478 98.370678,-29.89889 122.002484,-63.72797 19.280993,-27.60084 60.310234,-40.16351 91.930348,-40.46317 27.150062,-0.36491 60.518529,18.65026 63.127516,38.62381 0.81116,11.73073 2.526649,20.8058 -4.163961,28.34218 -6.690616,7.53638 -18.792514,13.80787 -34.531891,19.28799 -31.478757,10.96026 -76.776866,18.52064 -114.51004,33.4963 -38.896926,15.43756 -42.237946,36.11841 -37.188246,55.57376 5.04971,19.45533 22.217405,35.33133 22.217405,35.33133 7.14476,6.57989 14.220198,12.07056 21.235414,9.43464 z M -73.465558,389.38505 c 4.342195,-2.60888 6.292514,-8.44093 3.458465,-13.353 l -43.062207,-74.58877 -43.06333,-74.58575 c -2.38403,-4.12756 -7.38698,-5.94827 -11.86628,-4.31847 -2.17074,0.78951 -3.99391,2.31866 -5.14922,4.31885 l -43.06297,74.58474 -43.06226,74.58925 c -3.77704,6.54851 5.0333,15.4277 18.33906,13.24404 0.01,-8.2e-4 0.0155,-2.6e-4 0.0255,-10e-4 62.06854,-33.1888 66.30399,-37.16309 154.584413,0.39352 2.680333,0.38745 4.954612,0.66611 7.807989,1.0975 1.890331,-3e-5 3.603463,-0.51121 5.05086,-1.38084 z"
     sodipodi:nodetypes="scsssssssssssssssccssssssssccssssccscccccccccccssc" /></g></svg>
